<svg width="17" height="21" viewBox="0 0 17 21" fill="none" xmlns="http://www.w3.org/2000/svg">
<path id="Vector" d="M11.1808 1.00486L15.976 5.85809M4.5712 9.97775H12.4048M4.5712 15.856H12.4048M4.5712 12.9169H12.4048M1.936 1.00486C1.68558 1.0112 1.44752 1.11635 1.27264 1.29789C1.09776 1.47942 0.999922 1.72294 1 1.97648V19.0284C0.999922 19.2819 1.09776 19.5254 1.27264 19.707C1.44752 19.8885 1.68558 19.9937 1.936 20H15.04C15.2946 20 15.5388 19.8976 15.7188 19.7154C15.8989 19.5332 16 19.2861 16 19.0284V5.85809H12.16C11.9096 5.85175 11.6715 5.7466 11.4966 5.56506C11.3218 5.38353 11.2239 5.14001 11.224 4.88647V1L1.936 1.00486Z" stroke="#00214A" stroke-linecap="round" stroke-linejoin="round"/>
</svg>
