<svg width="21" height="19" viewBox="0 0 21 19" fill="none" xmlns="http://www.w3.org/2000/svg">
<g id="clarity:home-solid" clip-path="url(#clip0_43_199)">
<path id="Vector" d="M19.2498 10.0278C19.173 10.0282 19.0969 10.0149 19.0258 9.98861C18.9548 9.96235 18.8901 9.92365 18.8356 9.87473L10.4998 2.32751L2.16394 9.87473C2.05235 9.9612 1.9088 10.0064 1.76199 10.0012C1.61518 9.99612 1.47592 9.94105 1.37203 9.84706C1.26814 9.75306 1.20728 9.62706 1.20161 9.49423C1.19594 9.3614 1.24587 9.23153 1.34144 9.13057L10.0914 1.2139C10.2007 1.1156 10.3486 1.06042 10.5027 1.06042C10.6568 1.06042 10.8046 1.1156 10.9139 1.2139L19.6639 9.13057C19.7442 9.20466 19.7986 9.29851 19.8202 9.4004C19.8419 9.50228 19.8298 9.60768 19.7856 9.70341C19.7414 9.79915 19.667 9.88098 19.5717 9.93867C19.4764 9.99636 19.3644 10.0274 19.2498 10.0278Z" fill="#00214A"/>
<path id="Vector_2" d="M10.5 4.11133L3.5 10.4658V16.8888C3.5 17.1688 3.62292 17.4373 3.84171 17.6352C4.0605 17.8332 4.35725 17.9444 4.66667 17.9444H8.75V12.6666H12.25V17.9444H16.3333C16.6428 17.9444 16.9395 17.8332 17.1583 17.6352C17.3771 17.4373 17.5 17.1688 17.5 16.8888V10.4288L10.5 4.11133Z" fill="#00214A"/>
</g>
<defs>
<clipPath id="clip0_43_199">
<rect width="21" height="19" fill="white"/>
</clipPath>
</defs>
</svg>
