<svg width="148" height="40" viewBox="0 0 148 40" fill="none" xmlns="http://www.w3.org/2000/svg">
<g id="Group">
<g id="LOGO">
<g id="Group_2">
<path id="Vector" d="M18.2422 39.7552L25.7684 31.308H46.713V39.7552H18.2422Z" fill="#FF9700"/>
<path id="Vector_2" d="M46.7129 15.665H25.2184L11.2029 0.0220947H0L17.755 19.8573L0 39.7551H11.2029L25.1555 24.1122H46.7129V15.665Z" fill="white"/>
<path id="Vector_3" d="M24.8883 8.46928L17.3149 0.0220947H46.7128V8.46928H24.8883Z" fill="#FF9700"/>
</g>
<g id="Group_3">
<path id="Vector_4" d="M73.2668 0.0533447H67.2176L58.1358 11.2068V0.0533447H53.1235V24.91H58.1358V13.8348L67.2176 24.91H73.5496L62.9752 12.38L73.2668 0.0533447Z" fill="white"/>
<path id="Vector_5" d="M84.2813 0.0220947L75.3096 24.91H80.5732L82.223 20.1702H92.169L93.8188 24.91H99.0981L90.1106 0.0220947H84.2813ZM83.5743 16.1969L87.1881 5.79434L90.802 16.1969H83.5743Z" fill="white"/>
<path id="Vector_6" d="M109.892 0.0220947L100.92 24.91H106.184L107.834 20.1702H117.78L119.43 24.91H124.709L115.737 0.0220947H109.892ZM109.185 16.1969L112.799 5.79434L116.413 16.1969H109.185Z" fill="white"/>
<path id="Vector_7" d="M142.338 0.0533447L137.012 11.4258L131.654 0.0533447H125.998L134.467 16.2594V24.91H139.479V16.2594L147.916 0.0533447H142.338Z" fill="white"/>
</g>
<g id="Group_4">
<path id="Vector_8" d="M53.1553 38.9261H57.4605V38.0658H54.1923V35.3283H57.1148V34.4679H54.1923V31.8086H57.4605V30.9482H53.1553V38.9261Z" fill="#FF9700"/>
<path id="Vector_9" d="M64.8612 37.2836L60.6503 30.9482H59.6133V38.9261H60.6503V32.5908L64.8612 38.9261H65.8982V30.9482H64.8612V37.2836Z" fill="#FF9700"/>
<path id="Vector_10" d="M67.752 31.8084H69.9517V38.9259H70.9887V31.8084H73.1727V30.9637H67.752V31.8084Z" fill="#FF9700"/>
<path id="Vector_11" d="M79.9134 34.7495C80.2277 34.3271 80.3848 33.8422 80.3848 33.2947C80.3848 32.841 80.2748 32.45 80.0705 32.0902C79.8663 31.7304 79.552 31.4645 79.1278 31.2611C78.7036 31.0577 78.2008 30.9482 77.6037 30.9482H75.0269V38.9105H76.0639V35.6568H77.3209L79.2221 38.9105H80.4791L78.4679 35.5785C79.1278 35.4534 79.5992 35.1718 79.9134 34.7495ZM76.0796 34.8277V31.8086H77.6194C78.2008 31.8086 78.625 31.9337 78.8921 32.1997C79.1749 32.4656 79.3163 32.8254 79.3163 33.2947C79.3163 33.764 79.1749 34.1238 78.8921 34.4053C78.6093 34.6869 78.185 34.8277 77.6194 34.8277H76.0796Z" fill="#FF9700"/>
<path id="Vector_12" d="M82.5845 38.9261H86.8897V38.0658H83.6215V35.3283H86.544V34.4679H83.6215V31.8086H86.8897V30.9482H82.5845V38.9261Z" fill="#FF9700"/>
<path id="Vector_13" d="M91.6193 30.9637H89.0425V38.9259H90.0795V35.6096H91.6193C92.5463 35.6096 93.2534 35.3906 93.7091 34.9526C94.1647 34.5146 94.3847 33.9671 94.3847 33.2945C94.3847 32.6062 94.149 32.043 93.6776 31.6207C93.222 31.1827 92.5306 30.9637 91.6193 30.9637ZM92.9077 34.3582C92.6249 34.6085 92.2007 34.7336 91.6193 34.7336H90.0795V31.8084H91.6193C92.7506 31.8084 93.3163 32.2933 93.3163 33.2788C93.3163 33.7481 93.1905 34.1079 92.9077 34.3582Z" fill="#FF9700"/>
<path id="Vector_14" d="M101.141 34.7495C101.455 34.3271 101.612 33.8422 101.612 33.2947C101.612 32.841 101.502 32.45 101.298 32.0902C101.094 31.7304 100.78 31.4645 100.355 31.2611C99.9311 31.0577 99.4283 30.9482 98.8312 30.9482H96.2544V38.9105H97.2914V35.6568H98.5484L100.45 38.9105H101.707L99.6954 35.5785C100.355 35.4534 100.827 35.1718 101.141 34.7495ZM97.3071 34.8277V31.8086H98.8469C99.4283 31.8086 99.8525 31.9337 100.12 32.1997C100.402 32.4656 100.544 32.8254 100.544 33.2947C100.544 33.764 100.402 34.1238 100.12 34.4053C99.8368 34.6869 99.4126 34.8277 98.8469 34.8277H97.3071Z" fill="#FF9700"/>
<path id="Vector_15" d="M103.812 38.9261H108.117V38.0658H104.849V35.3283H107.772V34.4679H104.849V31.8086H108.117V30.9482H103.812V38.9261Z" fill="#FF9700"/>
<path id="Vector_16" d="M115.518 37.2836L111.307 30.9482H110.27V38.9261H111.307V32.5908L115.518 38.9261H116.555V30.9482H115.518V37.2836Z" fill="#FF9700"/>
<path id="Vector_17" d="M123.672 31.4486C123.028 31.1201 122.274 30.9637 121.41 30.9637H118.927V38.9259H121.41C122.274 38.9259 123.044 38.7695 123.672 38.4567C124.317 38.1438 124.804 37.6901 125.134 37.0801C125.479 36.4856 125.636 35.7817 125.636 34.9683C125.636 34.1548 125.464 33.4509 125.134 32.8408C124.788 32.2308 124.301 31.7771 123.672 31.4486ZM123.767 37.2521C123.217 37.7996 122.431 38.0656 121.41 38.0656H119.964V31.8084H121.41C122.431 31.8084 123.217 32.09 123.767 32.6375C124.317 33.2006 124.584 33.9671 124.584 34.9526C124.584 35.9381 124.301 36.7046 123.767 37.2521Z" fill="#FF9700"/>
<path id="Vector_18" d="M132.472 34.7495C132.786 34.3271 132.943 33.8422 132.943 33.2947C132.943 32.841 132.833 32.45 132.629 32.0902C132.424 31.7304 132.11 31.4645 131.686 31.2611C131.262 31.0577 130.759 30.9482 130.162 30.9482H127.585V38.9105H128.622V35.6568H129.879L131.78 38.9105H133.037L131.026 35.5785C131.686 35.4534 132.157 35.1718 132.472 34.7495ZM128.638 34.8277V31.8086H130.178C130.759 31.8086 131.183 31.9337 131.45 32.1997C131.733 32.4656 131.874 32.8254 131.874 33.2947C131.874 33.764 131.733 34.1238 131.45 34.4053C131.167 34.6869 130.743 34.8277 130.178 34.8277H128.638Z" fill="#FF9700"/>
<path id="Vector_19" d="M139.448 31.8086V30.9482H135.143V38.9261H139.448V38.0658H136.195V35.3283H139.102V34.4679H136.195V31.8086H139.448Z" fill="#FF9700"/>
</g>
</g>
</g>
</svg>
