<svg width="166" height="147" viewBox="0 0 166 147" fill="none" xmlns="http://www.w3.org/2000/svg">
<g id="gridicons:play">
<path id="Vector" d="M82.9992 12.2067C69.3548 12.2067 56.0167 15.7863 44.6718 22.4927C33.3269 29.1992 24.4846 38.7313 19.2631 49.8838C14.0416 61.0362 12.6754 73.308 15.3373 85.1474C17.9992 96.9867 24.5696 107.862 34.2177 116.398C43.8658 124.933 56.1581 130.746 69.5404 133.101C82.9227 135.456 96.7937 134.247 109.4 129.628C122.005 125.009 132.78 117.186 140.36 107.149C147.941 97.1118 151.987 85.3116 151.987 73.2403C151.987 65.2253 150.202 57.2887 146.735 49.8838C143.268 42.4788 138.187 35.7505 131.781 30.083C125.375 24.4156 117.769 19.9199 109.4 16.8526C101.03 13.7854 92.0587 12.2067 82.9992 12.2067ZM69.2017 100.705V45.7752L110.594 73.2403L69.2017 100.705Z" fill="#FF9700"/>
</g>
</svg>
