<svg width="79" height="76" viewBox="0 0 79 76" fill="none" xmlns="http://www.w3.org/2000/svg">
<g id="ph:play-light">
<path id="Vector" d="M71.4813 34.7607L27.5262 9.03264C26.8778 8.65206 26.135 8.4441 25.3745 8.43025C24.6139 8.41639 23.8634 8.59714 23.2003 8.95382C22.5407 9.30041 21.9913 9.81106 21.61 10.4318C21.2288 11.0526 21.0298 11.7604 21.0343 12.4804V63.9366C21.0298 64.6566 21.2288 65.3644 21.61 65.9851C21.9913 66.6059 22.5407 67.1166 23.2003 67.4631C23.8634 67.8198 24.6139 68.0006 25.3745 67.9867C26.135 67.9729 26.8778 67.7649 27.5262 67.3843L71.4813 41.6562C72.1 41.2964 72.6115 40.7902 72.9664 40.1863C73.3213 39.5824 73.5078 38.9013 73.5078 38.2085C73.5078 37.5157 73.3213 36.8345 72.9664 36.2306C72.6115 35.6268 72.1 35.1206 71.4813 34.7607ZM69.5715 38.6668L25.6104 64.3949C25.5155 64.4495 25.4068 64.4783 25.2961 64.4783C25.1854 64.4783 25.0768 64.4495 24.9819 64.3949C24.89 64.352 24.8125 64.2851 24.7586 64.202C24.7046 64.1188 24.6763 64.0228 24.6768 63.9249V12.4804C24.6763 12.3825 24.7046 12.2864 24.7586 12.2033C24.8125 12.1201 24.89 12.0533 24.9819 12.0104C25.0806 11.9577 25.1923 11.9315 25.3053 11.9345C25.4136 11.9382 25.5189 11.9694 25.6104 12.025L69.5715 37.7501C69.6551 37.797 69.7243 37.864 69.7725 37.9444C69.8206 38.0248 69.8459 38.1158 69.8459 38.2085C69.8459 38.3011 69.8206 38.3922 69.7725 38.4726C69.7243 38.553 69.6551 38.6199 69.5715 38.6668Z" fill="white"/>
</g>
</svg>
