<svg width="79" height="76" viewBox="0 0 79 76" fill="none" xmlns="http://www.w3.org/2000/svg">
<g id="ph:play-light">
<path id="Vector" d="M7.51674 41.6562L51.4718 67.3844C52.1202 67.7649 52.8631 67.9729 53.6236 67.9867C54.3841 68.0006 55.1347 67.8199 55.7978 67.4632C56.4573 67.1166 57.0067 66.6059 57.388 65.9852C57.7693 65.3644 57.9682 64.6566 57.9638 63.9366L57.9638 12.4804C57.9682 11.7604 57.7693 11.0526 57.388 10.4319C57.0067 9.8111 56.4573 9.30044 55.7978 8.95385C55.1347 8.59717 54.3841 8.41642 53.6236 8.43028C52.8631 8.44413 52.1202 8.6521 51.4718 9.03267L7.51674 34.7608C6.89803 35.1206 6.38658 35.6268 6.03165 36.2307C5.67673 36.8345 5.49028 37.5157 5.49028 38.2085C5.49028 38.9013 5.67673 39.5825 6.03165 40.1863C6.38658 40.7902 6.89803 41.2964 7.51674 41.6562ZM9.4265 37.7502L53.3877 12.0221C53.4826 11.9675 53.5912 11.9387 53.7019 11.9387C53.8126 11.9387 53.9212 11.9675 54.0161 12.0221C54.1081 12.065 54.1855 12.1318 54.2395 12.215C54.2935 12.2981 54.3218 12.3942 54.3212 12.4921L54.3212 63.9366C54.3218 64.0345 54.2935 64.1306 54.2395 64.2137C54.1855 64.2969 54.1081 64.3637 54.0161 64.4066C53.9174 64.4593 53.8057 64.4855 53.6928 64.4825C53.5845 64.4788 53.4792 64.4476 53.3877 64.392L9.4265 38.6668C9.34297 38.62 9.27371 38.553 9.22557 38.4726C9.17744 38.3922 9.15212 38.3012 9.15212 38.2085C9.15212 38.1159 9.17744 38.0248 9.22557 37.9444C9.27371 37.864 9.34297 37.797 9.4265 37.7502Z" fill="white"/>
</g>
</svg>
