<svg width="34" height="53" viewBox="0 0 34 53" fill="none" xmlns="http://www.w3.org/2000/svg">
<path id="Vector" d="M22.719 0.843072L32.9488 13.8241M8.61856 24.8431H25.3302M8.61856 40.5659H25.3302M8.61856 32.7045H25.3302M2.9968 0.843072C2.46256 0.860026 1.9547 1.14129 1.58163 1.62684C1.20856 2.11239 0.999833 2.76375 1 3.44189V49.0511C0.999833 49.7292 1.20856 50.3806 1.58163 50.8661C1.9547 51.3516 2.46256 51.6329 2.9968 51.6499H30.952C31.4952 51.6499 32.0161 51.3761 32.4002 50.8887C32.7842 50.4013 33 49.7403 33 49.0511V13.8241H24.808C24.2738 13.8072 23.7659 13.5259 23.3928 13.0404C23.0198 12.5548 22.811 11.9035 22.8112 11.2253V0.830078L2.9968 0.843072Z" stroke="#00214A" stroke-linecap="round" stroke-linejoin="round"/>
</svg>
